<?xml version="1.0" encoding="UTF-8"?>
<!DOCTYPE svg PUBLIC "-//W3C//DTD SVG 1.1//EN" "http://www.w3.org/Graphics/SVG/1.1/DTD/svg11.dtd">
<!-- Creator: CorelDRAW X7 -->
<svg xmlns="http://www.w3.org/2000/svg" xml:space="preserve" width="4.16859in" height="4.46009in" version="1.1" style="shape-rendering:geometricPrecision; text-rendering:geometricPrecision; image-rendering:optimizeQuality; fill-rule:evenodd; clip-rule:evenodd"
viewBox="0 0 4169 4460"
 xmlns:xlink="http://www.w3.org/1999/xlink">
 <defs>
  <style type="text/css">
   <![CDATA[
    .fil0 {fill:#FEB100;fill-rule:nonzero}
   ]]>
  </style>
 </defs>
 <g id="Layer_x0020_1">
  <metadata id="CorelCorpID_0Corel-Layer"/>
  <path class="fil0" d="M2160 4035c95,0 181,38 244,101 62,62 100,148 100,243 0,15 -1,31 -3,46 -75,-9 -137,33 -211,35 -1,0 -3,0 -5,0 16,-23 24,-51 24,-81 0,-41 -16,-78 -43,-105 -27,-27 -64,-44 -106,-44 -11,0 -21,1 -32,4 -11,-14 -24,-27 -34,-41 -25,-35 -49,-70 -73,-105 -4,-6 -8,-12 -12,-18 46,-23 97,-35 151,-35zm1985 -2519c-2,0 -3,-1 -4,-1 -13,-5 -27,-9 -41,-11 0,1 1,2 2,2 -25,4 -42,25 -64,36 -26,12 -54,4 -81,7 -13,2 -25,6 -38,10 71,44 139,91 206,140 4,-9 7,-18 8,-28 7,-39 -9,-105 36,-126 -4,-13 -15,-17 -24,-29zm-286 64c-26,8 -49,21 -75,30 -21,7 -55,7 -68,-15 -3,-6 2,-13 1,-20 -1,-12 -7,-26 -13,-37 -15,-27 -47,-45 -70,-66 -12,-12 -25,-24 -37,-36 -434,-212 -921,-331 -1437,-331 -729,0 -1403,239 -1948,643 10,23 18,47 30,71 12,24 28,45 49,61 12,9 25,17 36,25 512,-380 1147,-605 1833,-605 699,0 1344,233 1861,626 15,-24 22,-48 27,-78 8,-39 33,-72 54,-105 -79,-58 -160,-113 -243,-163zm-382 -253c-10,-16 -20,-33 -33,-48 -21,-26 -52,-39 -73,-64 -17,-20 -19,-46 -32,-67 -14,-21 -38,-28 -55,-46 -10,-10 -7,-30 -8,-43 -1,-6 -2,-12 -3,-18 -350,-117 -724,-180 -1113,-180 -786,0 -1513,258 -2099,695 4,6 8,11 13,17 33,38 72,70 103,111 5,6 9,12 13,19 552,-406 1233,-647 1970,-647 468,0 913,97 1317,271zm-230 -346c-22,-35 -54,-65 -79,-101 -14,-21 -8,-43 -12,-67 -4,-26 -22,-44 -43,-59 -9,-8 -18,-15 -27,-22 -296,-75 -606,-115 -926,-115 -782,0 -1509,239 -2111,648 -9,19 -19,37 -30,53 -13,19 -24,36 -17,60 7,24 15,45 19,69 3,23 8,45 17,65 593,-440 1327,-700 2122,-700 379,0 745,59 1087,169zm-209 -312c-13,-22 -23,-46 -34,-69 26,-19 62,-20 65,-59 1,-22 -4,-45 -12,-67 -262,-60 -534,-95 -813,-100 -1,2 -2,4 -3,5 -19,34 -58,21 -87,12 -7,-8 -18,-14 -30,-18 -20,0 -40,0 -60,1l-1 1c-2,0 -5,0 -8,-1 -723,19 -1398,229 -1976,581 43,14 13,71 10,102 -1,23 3,47 2,71 0,19 -4,38 -10,57 598,-390 1312,-617 2079,-617 302,0 596,35 878,101zm-5 -251c-25,-40 -65,-47 -113,-57 -43,-10 -70,-26 -112,-5 -11,5 -21,10 -31,14 86,14 172,29 256,48zm-480 -75c-6,-3 -12,-5 -18,-9 -15,-8 -29,-18 -45,-21 -19,-16 -63,-6 -90,-8 0,-3 -4,-17 -5,-19 -1,1 -2,1 -4,1 0,-10 -4,-18 -5,-24 -43,-18 -111,-5 -134,39 -4,7 -5,15 -6,23 104,2 206,8 307,18zm-528 -17c-1,-2 -13,-7 -14,-8 -4,-2 -9,-4 -13,-6 -9,-4 -19,-9 -27,-15 -10,-2 -19,-6 -29,-10 -10,-3 -21,-6 -32,-8 -12,-3 -24,-6 -36,-9 -20,-6 -39,-13 -59,-18 -15,-3 -30,-3 -44,-9 -2,-2 -6,-6 -12,-10 -10,-7 -12,-19 -10,-31 0,-7 3,-15 6,-22 3,-5 6,-10 6,-16 0,-6 -3,-11 -7,-16 -434,41 -850,148 -1236,310 -21,17 -42,32 -67,41 -31,10 -57,21 -76,48 -17,24 -35,45 -59,62 -23,16 -46,30 -64,52 -18,22 -30,49 -46,72 -18,24 -37,48 -56,72 -20,25 -42,54 -57,85 569,-338 1228,-541 1932,-564zm-296 -225l0 0c8,-10 11,-21 10,-35 0,1 2,2 2,2 -2,-7 -3,-7 -9,-11 -2,-13 -31,-38 -53,-35 -8,-8 -3,-5 -16,-7 -9,-8 -12,-7 -24,-11 -8,-4 -17,-6 -31,-1 -12,-6 -28,3 -27,4 -13,18 -35,32 -57,23 -8,0 -13,0 -20,0 -8,-12 -25,-17 -41,-12 -23,-19 -35,10 -57,13 -31,5 -59,-17 -91,-9 -1,-2 -1,-4 0,-6 -40,-2 -123,34 -153,59 -20,1 -50,6 -73,17 0,-2 -1,-4 -2,-5 -13,5 -24,4 -36,11 -13,-3 -27,1 -39,9 -6,0 -19,0 -27,-3 -9,1 -33,-1 -37,-2 1,-3 -9,-5 -13,-5 -1,-10 0,-7 -8,-18 0,0 1,1 1,1 1,-9 -2,-17 -7,-22 -27,7 -53,15 -80,23 -3,8 -6,16 -9,22 -28,49 -74,63 -122,85 -51,24 -95,63 -110,119 -6,24 -5,48 -14,70 360,-142 743,-236 1143,-276zm-1368 1840c16,23 28,47 48,66 21,19 47,34 76,38 29,3 59,-5 87,-14 453,-307 1000,-487 1588,-487 649,0 1247,218 1725,585 8,-7 17,-14 26,-21l-9 0c47,-4 57,-69 69,-104 5,-15 11,-28 20,-39 -509,-387 -1143,-616 -1831,-616 -673,0 -1296,220 -1799,592zm337 67c29,-1 58,0 87,4 31,5 63,15 95,16 40,2 70,-17 107,-28 32,-9 65,-11 98,-16 39,-5 64,-18 98,-36 23,-13 50,-17 72,3l0 0c282,-105 587,-162 905,-162 584,0 1122,192 1555,518 15,-15 31,-29 46,-44 31,-33 58,-67 88,-99 -468,-358 -1053,-571 -1689,-571 -536,0 -1037,152 -1462,415zm596 -19c7,8 14,15 21,23 17,18 36,41 60,50 35,13 74,0 110,10 24,7 46,24 64,41 195,-52 400,-80 611,-80 527,0 1012,173 1404,466 25,-28 52,-54 76,-83 18,-22 30,-47 44,-71 -424,-319 -952,-507 -1524,-507 -304,0 -596,53 -866,151zm286 167c3,9 4,19 3,30 -3,29 -11,59 -5,88 -12,30 -31,61 -33,95 194,-60 401,-92 615,-92 506,0 969,178 1331,475 -8,-16 -20,-31 -26,-48 -20,-49 23,-109 49,-146 6,-8 11,-15 17,-23 -382,-285 -857,-453 -1371,-453 -200,0 -395,26 -580,74zm-26 261c15,32 45,60 68,84 24,26 46,53 67,80 151,-39 309,-60 471,-60 513,0 978,208 1314,544 31,31 61,63 89,96 1,-41 -4,-82 1,-121 3,-35 21,-75 -2,-106 -15,-20 -40,-29 -54,-49 -15,-20 -13,-41 -10,-64 -359,-308 -827,-495 -1338,-495 -211,0 -414,32 -606,91zm166 207c23,33 44,68 63,103 11,20 24,40 32,62 1,4 3,8 3,13 111,-24 225,-37 342,-37 446,0 850,181 1142,473 38,39 75,79 110,122 48,-27 103,-52 131,-103 5,-9 9,-20 12,-30 -37,-44 -75,-87 -115,-127 -328,-327 -780,-530 -1280,-530 -151,0 -299,19 -440,54zm98 228c0,2 0,3 0,5 -1,38 19,67 36,100 15,31 13,59 5,86 97,-22 198,-34 301,-34 379,0 721,154 969,401 31,31 60,63 87,97 7,-5 13,-11 19,-16 44,-36 87,-74 135,-105 -33,-40 -67,-77 -103,-113 -283,-284 -674,-459 -1107,-459 -117,0 -232,13 -342,38zm16 247c-11,24 -22,49 -25,76l-4 0c-18,41 -34,82 -43,125 -2,9 -4,19 -5,28 125,-48 261,-75 403,-75 311,0 593,126 796,330 71,71 133,152 183,240 9,-15 14,-31 17,-47 12,-59 -7,-117 -1,-176 2,-23 12,-42 26,-59 -27,-33 -56,-65 -87,-96 -239,-239 -569,-387 -934,-387 -112,0 -221,14 -326,41zm-80 283c1,41 10,81 28,119 10,23 25,44 40,64 104,-43 218,-67 338,-67 244,0 464,98 624,258 88,88 158,195 202,314 13,-30 7,-61 12,-93 4,-28 18,-60 37,-81 18,-20 45,-25 68,-38 -49,-88 -110,-169 -181,-240 -195,-195 -464,-316 -762,-316 -143,0 -281,29 -406,80zm100 223c18,22 36,45 51,70 19,32 24,68 27,105l1 4c70,-27 147,-42 227,-42 176,0 336,71 451,186 99,99 166,231 182,378 21,-17 37,-37 54,-57 24,-31 47,-62 72,-92 10,-13 21,-25 32,-38 -41,-125 -111,-237 -202,-329 -151,-150 -359,-243 -589,-243 -108,0 -211,20 -306,58zm87 228c4,16 9,32 14,49 10,35 7,71 14,106 3,14 8,27 15,40 53,-27 113,-42 176,-42 109,0 207,44 278,115 71,71 115,169 115,278 0,15 0,30 -2,45 17,-3 33,-10 51,-21 26,-17 52,-32 82,-43 21,-9 42,-16 63,-26 -11,-144 -74,-274 -171,-371 -106,-106 -253,-172 -416,-172 -77,0 -151,15 -219,42z"/>
 </g>
</svg>
