<?xml version="1.0" encoding="UTF-8"?>
<!DOCTYPE svg PUBLIC "-//W3C//DTD SVG 1.1//EN" "http://www.w3.org/Graphics/SVG/1.1/DTD/svg11.dtd">
<!-- Creator: CorelDRAW -->
<svg xmlns="http://www.w3.org/2000/svg" xml:space="preserve" width="9.99168in" height="2.53202in" style="shape-rendering:geometricPrecision; text-rendering:geometricPrecision; image-rendering:optimizeQuality; fill-rule:evenodd; clip-rule:evenodd"
viewBox="0 0 9.99168 2.53202"
 xmlns:xlink="http://www.w3.org/1999/xlink">
 <defs>
  <style type="text/css">
   <![CDATA[
    .fil1 {fill:white}
    .fil0 {fill:black;fill-rule:nonzero}
    .fil2 {fill:#FFB000;fill-rule:nonzero}
   ]]>
  </style>
 </defs>
 <g id="Layer_x0020_1">
  <metadata id="CorelCorpID_0Corel-Layer"/>
  <g id="_40778968">
   <path id="_40781200" class="fil0" d="M8.7875 0.123685c-0.0768031,0 -0.0768031,0.116669 0,0.116669 0.598004,0 1.0875,0.489476 1.0875,1.0875 0,0.598024 -0.4895,1.0875 -1.0875,1.0875l-7.58333 0c-0.598008,0 -1.0875,-0.489492 -1.0875,-1.0875 0,-0.598008 0.489492,-1.0875 1.0875,-1.0875l5.92232 0c0.0768031,0 0.0768031,-0.116669 0,-0.116669l-5.92232 0c-0.662413,0 -1.20417,0.541756 -1.20417,1.20417 0,0.662413 0.541756,1.20417 1.20417,1.20417l7.58333 0c0.662417,0 1.20417,-0.541752 1.20417,-1.20417 0,-0.662417 -0.541756,-1.20417 -1.20417,-1.20417z"/>
   <path id="_40781320" class="fil0" d="M1.26667 1.75462l0.242862 0 0 -0.511287 0.227528 0.347681 0.00510236 0 0.228811 -0.350236 0 0.513843 0.246697 0 0 -0.894752 -0.262035 0 -0.213472 0.346398 -0.213457 -0.346398 -0.262035 0 0 0.894752zm1.23146 0.208354c0.0342992,0 0.0645394,-0.00404724 0.0909606,-0.0125787 0.0262087,-0.00830315 0.0496378,-0.0215118 0.0698819,-0.0396299 0.0204409,-0.0178898 0.0387717,-0.0411063 0.0553937,-0.0696575 0.0166063,-0.0285472 0.0321535,-0.0628465 0.0470709,-0.10311l0.253087 -0.674894 -0.249252 0 -0.130378 0.416705 -0.138047 -0.416705 -0.254366 0 0.270988 0.678728c-0.00745669,0.0106575 -0.0157598,0.0181181 -0.0247126,0.0221614 -0.00895276,0.00425984 -0.0195945,0.00617717 -0.0315394,0.00596457 -0.0138425,-0.000212598 -0.0300276,-0.00341339 -0.0487756,-0.0100079 -0.018752,-0.00640157 -0.0377126,-0.0155512 -0.057311,-0.0270551l-0.0754094 0.169992c0.0319488,0.0181142 0.066248,0.0325945 0.103098,0.0434646 0.0368661,0.0108701 0.0764803,0.0164094 0.119311,0.016622zm1.06603 -0.190465c0.054122,-0.000212598 0.104819,-0.00638583 0.151906,-0.0185236 0.0470709,-0.0119409 0.0903268,-0.0283386 0.129957,-0.0490039 0.0396142,-0.0208819 0.0751969,-0.044311 0.10672,-0.0705197l0 -0.402634 -0.411591 0 0 0.181508 0.176409 0 0 0.108654c-0.0183307,0.0121378 -0.0394213,0.0213031 -0.0628504,0.027689 -0.0236575,0.00617323 -0.0502874,0.00937402 -0.080315,0.00937402 -0.0355827,-0.000212598 -0.0681772,-0.00638583 -0.0977835,-0.0185394 -0.029622,-0.0119252 -0.0551811,-0.0291811 -0.0769055,-0.0513425 -0.0215276,-0.0221496 -0.0383465,-0.0481457 -0.0502874,-0.0783858 -0.0117126,-0.030252 -0.0176772,-0.0634961 -0.0178898,-0.0997008l0 -0.00256693c0.000212598,-0.0342992 0.00596457,-0.0664567 0.0176811,-0.0960748 0.0115039,-0.0296063 0.0277008,-0.0556024 0.0483701,-0.0779764 0.0206496,-0.0223583 0.0449409,-0.0396142 0.0726299,-0.052189 0.0274921,-0.012563 0.057748,-0.0189646 0.0901142,-0.0191732 0.0291969,0 0.056252,0.00340945 0.0809646,0.0100079 0.0247126,0.00661417 0.0481457,0.0159882 0.0702913,0.0285472 0.0219528,0.0125787 0.0436772,0.0279173 0.0647677,0.0458071l0.145717 -0.17511c-0.031311,-0.0272677 -0.065189,-0.0507126 -0.101197,-0.0700945 -0.0362008,-0.0193858 -0.0758307,-0.0343031 -0.118874,-0.0447323 -0.0430276,-0.0102205 -0.090748,-0.0155512 -0.142937,-0.0155512 -0.0556024,0.000212598 -0.107791,0.00788189 -0.156587,0.0234291 -0.0487795,0.0153386 -0.0930866,0.037063 -0.132929,0.065189 -0.0396299,0.0283386 -0.0739291,0.0615669 -0.102689,0.100122 -0.0285472,0.0387717 -0.0506969,0.0813898 -0.0662441,0.128039 -0.0153386,0.0466496 -0.0232362,0.0960748 -0.0234449,0.148492l0 0.00255118c0.000208661,0.0543189 0.0081063,0.105031 0.0238661,0.152102 0.0157598,0.0470866 0.0381339,0.0896929 0.0673189,0.127827 0.0291811,0.0381339 0.0636929,0.0707283 0.103957,0.0979961 0.0402638,0.0272638 0.0850118,0.0481417 0.134213,0.0626378 0.0492165,0.014689 0.101827,0.0219331 0.157642,0.0221457zm0.65498 -0.00255118c0.0451732,-0.000425197 0.0845906,-0.00830315 0.118031,-0.0238543 0.0332283,-0.015563 0.0617756,-0.0364291 0.0852047,-0.0630591l0 0.0715748 0.240315 0 0 -0.39752c0.000208661,-0.0485827 -0.00554331,-0.0909724 -0.0174685,-0.127189 -0.0117165,-0.0364291 -0.0306772,-0.0673189 -0.0566732,-0.0926654 -0.0272638,-0.0274921 -0.0624094,-0.0485827 -0.105665,-0.0628504 -0.043252,-0.0142677 -0.0958661,-0.0215118 -0.157642,-0.0215118 -0.0394173,0 -0.0754252,0.00233858 -0.10802,0.00680709 -0.0325945,0.00448425 -0.0630591,0.0106575 -0.0911693,0.018752 -0.0279134,0.00809055 -0.0549685,0.0174646 -0.0807402,0.028126l0.0498504 0.171272c0.0202323,-0.00809055 0.0404764,-0.015126 0.0604961,-0.0206654 0.0200315,-0.00575197 0.0404724,-0.0102205 0.0617913,-0.0131969 0.0213031,-0.00298819 0.0440984,-0.00448031 0.0681614,-0.00448031 0.0466496,0.000208661 0.0811614,0.0100079 0.103961,0.0294055 0.0227953,0.0193858 0.0340866,0.0470748 0.0340866,0.0830787l0 0.0115039c-0.0134213,-0.00469291 -0.0287598,-0.00916142 -0.046437,-0.0132087 -0.0176811,-0.00404724 -0.0366417,-0.00724803 -0.0570984,-0.00979921 -0.0202283,-0.00255118 -0.0411063,-0.00383465 -0.0626378,-0.00383465 -0.0545276,0 -0.101827,0.00830315 -0.142303,0.0245039 -0.0404764,0.0163937 -0.0719961,0.040685 -0.0945827,0.0728583 -0.022374,0.0321575 -0.0336654,0.0722087 -0.0340866,0.119929l0 0.00256693c0.000208661,0.0345118 0.00617323,0.0649764 0.0178898,0.0915945 0.0117126,0.0264173 0.028126,0.0487913 0.0490039,0.0668937 0.0210906,0.0181181 0.0455906,0.031748 0.0739134,0.041126 0.028126,0.00916142 0.0588031,0.0138425 0.0918189,0.0138425zm0.0869291 -0.152102c-0.0168307,0 -0.0315354,-0.00298819 -0.0443071,-0.00895276 -0.0127874,-0.00596457 -0.0230079,-0.0147047 -0.0302559,-0.0259961 -0.00724803,-0.0110669 -0.0108701,-0.0247008 -0.0110827,-0.0404764l0 -0.00255118c0,-0.0172559 0.0044685,-0.0321693 0.0132126,-0.0449567 0.00874016,-0.0127717 0.0212992,-0.0227835 0.0379213,-0.0298189 0.0166063,-0.00724409 0.0366417,-0.0106575 0.0600709,-0.0108701 0.0181181,0 0.035374,0.00170866 0.0515551,0.00511811 0.0164134,0.00320079 0.0306772,0.00746063 0.0430276,0.0127874l0 0.0319449c-0.000212598,0.0232205 -0.00531496,0.043252 -0.0155512,0.0600866 -0.0102205,0.0170433 -0.0242756,0.0302402 -0.0421772,0.0396142 -0.0181024,0.00916535 -0.0387717,0.0138583 -0.0624134,0.0140709zm0.412118 0.136764l0.242866 0 0 -0.21474c0.00042126,-0.0796811 0.0174646,-0.138256 0.0515551,-0.176181 0.0340748,-0.0379252 0.0828661,-0.0566732 0.146559,-0.0564488l0.0204567 0 0 -0.25565c-0.0381339,-0.00149606 -0.0711496,0.00383465 -0.0990669,0.0157598 -0.027685,0.0121535 -0.0513425,0.029622 -0.0707283,0.0528386 -0.0195945,0.0230079 -0.0357795,0.0504843 -0.0487756,0.0822323l0 -0.139327 -0.242866 0 0 0.691516zm0.644732 0.0153386c0.0451693,-0.000425197 0.0845866,-0.00830315 0.118028,-0.0238543 0.0332283,-0.015563 0.0617756,-0.0364291 0.0852047,-0.0630591l0 0.0715748 0.240315 0 0 -0.39752c0.000212598,-0.0485827 -0.00553937,-0.0909724 -0.0174685,-0.127189 -0.0117126,-0.0364291 -0.0306772,-0.0673189 -0.0566732,-0.0926654 -0.0272638,-0.0274921 -0.0624094,-0.0485827 -0.105665,-0.0628504 -0.043252,-0.0142677 -0.0958622,-0.0215118 -0.157642,-0.0215118 -0.0394173,0 -0.0754252,0.00233858 -0.108016,0.00680709 -0.0325945,0.00448425 -0.063063,0.0106575 -0.0911732,0.018752 -0.0279134,0.00809055 -0.0549685,0.0174646 -0.0807362,0.028126l0.0498504 0.171272c0.0202283,-0.00809055 0.0404724,-0.015126 0.0604921,-0.0206654 0.0200315,-0.00575197 0.0404764,-0.0102205 0.0617913,-0.0131969 0.0213031,-0.00298819 0.0440984,-0.00448031 0.0681614,-0.00448031 0.0466496,0.000208661 0.0811614,0.0100079 0.103961,0.0294055 0.0227953,0.0193858 0.0340866,0.0470748 0.0340866,0.0830787l0 0.0115039c-0.0134213,-0.00469291 -0.0287598,-0.00916142 -0.046437,-0.0132087 -0.0176772,-0.00404724 -0.0366417,-0.00724803 -0.0570984,-0.00979921 -0.0202283,-0.00255118 -0.0411063,-0.00383465 -0.0626378,-0.00383465 -0.0545276,0 -0.101827,0.00830315 -0.142303,0.0245039 -0.0404724,0.0163937 -0.0719961,0.040685 -0.0945827,0.0728583 -0.022374,0.0321575 -0.0336654,0.0722087 -0.0340866,0.119929l0 0.00256693c0.000208661,0.0345118 0.00617323,0.0649764 0.0178898,0.0915945 0.0117126,0.0264173 0.028126,0.0487913 0.0490039,0.0668937 0.0210906,0.0181181 0.0455945,0.031748 0.0739134,0.041126 0.028126,0.00916142 0.0588031,0.0138425 0.0918228,0.0138425zm0.0869252 -0.152102c-0.0168307,0 -0.0315354,-0.00298819 -0.0443071,-0.00895276 -0.0127874,-0.00596457 -0.0230079,-0.0147047 -0.0302559,-0.0259961 -0.00724803,-0.0110669 -0.0108701,-0.0247008 -0.0110827,-0.0404764l0 -0.00255118c0,-0.0172559 0.00447244,-0.0321693 0.0132126,-0.0449567 0.00874016,-0.0127717 0.0212992,-0.0227835 0.0379213,-0.0298189 0.0166063,-0.00724409 0.0366417,-0.0106575 0.0600709,-0.0108701 0.0181181,0 0.035374,0.00170866 0.0515591,0.00511811 0.0164094,0.00320079 0.0306772,0.00746063 0.0430236,0.0127874l0 0.0319449c-0.000208661,0.0232205 -0.00531102,0.043252 -0.0155472,0.0600866 -0.0102205,0.0170433 -0.0242756,0.0302402 -0.0421811,0.0396142 -0.0181024,0.00916535 -0.0387717,0.0138583 -0.0624134,0.0140709zm0.752118 0.343835c0.0720118,-0.000212598 0.132941,-0.00851575 0.182791,-0.0251378 0.0498504,-0.016622 0.0903268,-0.0404764 0.121425,-0.0720118 0.0306772,-0.0304646 0.0532638,-0.068374 0.0677559,-0.113543 0.014689,-0.0453819 0.021937,-0.0994921 0.0217244,-0.162551l0 -0.525343 -0.242866 0 0 0.081811c-0.0172559,-0.0185394 -0.0362165,-0.034937 -0.0566575,-0.0496417 -0.0204567,-0.0144921 -0.0436732,-0.0259961 -0.0698819,-0.0345118 -0.0262087,-0.00852756 -0.0564488,-0.0127874 -0.090748,-0.0129961 -0.0402638,0.000208661 -0.0784016,0.00745669 -0.114193,0.022374 -0.0357953,0.014689 -0.0675315,0.0360039 -0.0952323,0.0639055 -0.027689,0.0279134 -0.049626,0.0617756 -0.0654016,0.101406 -0.0159724,0.0396299 -0.024063,0.0843622 -0.0242756,0.134421l0 0.00256693c0.000212598,0.049626 0.00830315,0.0941614 0.024063,0.133776 0.0157638,0.0394173 0.0375039,0.0730827 0.0656142,0.100984 0.0279134,0.0277008 0.0605079,0.0490039 0.0973583,0.0636929 0.0370787,0.0149173 0.0769055,0.0221614 0.119736,0.022374 0.033437,-0.000212598 0.0632717,-0.00511811 0.0894646,-0.0142677 0.0259961,-0.00937402 0.0492165,-0.0219488 0.0694606,-0.0375 0.0202283,-0.0155512 0.0385551,-0.0328071 0.0545276,-0.0517677l0 0.0268425c0,0.0551811 -0.015126,0.0971496 -0.0451535,0.126122 -0.0302559,0.0289685 -0.0756339,0.0436732 -0.136354,0.0438858 -0.0308898,0 -0.0602835,-0.00256693 -0.0875472,-0.00788189 -0.0274921,-0.00511811 -0.0538976,-0.0125748 -0.0792598,-0.0221614 -0.0251378,-0.00979921 -0.0502717,-0.0215118 -0.0747756,-0.0351457l-0.0779606 0.161055c0.0496378,0.0255591 0.103098,0.0451535 0.160193,0.0587874 0.0573071,0.0134213 0.119311,0.0202441 0.186193,0.0204567zm0.0140709 -0.455039c-0.0279173,-0.000224409 -0.0524173,-0.00597638 -0.0737205,-0.0174803 -0.0213031,-0.0112795 -0.0379094,-0.0270551 -0.0498504,-0.0468622 -0.0119252,-0.0200197 -0.0181024,-0.042815 -0.018311,-0.0686024l0 -0.00255118c0.000208661,-0.0257835 0.00638583,-0.0487913 0.018311,-0.068811 0.0119409,-0.0202441 0.0285472,-0.0360079 0.0498504,-0.0477205 0.0213031,-0.0115039 0.0458031,-0.0174685 0.0737205,-0.0176811 0.0274764,0.000212598 0.0517677,0.00596457 0.0728543,0.0174685 0.0210906,0.0112913 0.0374882,0.0270551 0.0494291,0.0468622 0.0119252,0.0200315 0.0181024,0.0428307 0.018311,0.0685984l0 0.00256693c-0.000208661,0.0257717 -0.00638583,0.0487795 -0.018311,0.0687992 -0.0119409,0.0202441 -0.0283386,0.0360039 -0.0494291,0.0477205 -0.0210866,0.0115039 -0.045378,0.0174685 -0.0728543,0.0176929zm0.784075 0.264591c0.0460157,-0.000212598 0.0873346,-0.00618898 0.124413,-0.0176929 0.037063,-0.0117165 0.0700787,-0.0279016 0.0992638,-0.0489921 0.0289843,-0.020878 0.0545433,-0.0455906 0.0767047,-0.0739291l-0.134224 -0.111205c-0.0244882,0.0240787 -0.0492008,0.0419685 -0.0737047,0.0532638 -0.0247126,0.0115039 -0.0511339,0.0170433 -0.0796811,0.0170433 -0.0379094,0 -0.0698701,-0.00958661 -0.0958661,-0.0285472 -0.0257717,-0.0191732 -0.0436614,-0.0475118 -0.053685,-0.0852087l0.46272 0c0.000637795,-0.0083189 0.00105906,-0.0168307 0.00105906,-0.0253622 0.000224409,-0.00851575 0.000224409,-0.0168189 0.000224409,-0.0244882 0,-0.0409134 -0.00448031,-0.0798937 -0.0134213,-0.117394 -0.00894882,-0.0374843 -0.0223701,-0.0719961 -0.0404882,-0.103535 -0.018311,-0.0317323 -0.0413189,-0.0592244 -0.0690236,-0.0828661 -0.027689,-0.0234291 -0.0602835,-0.0417598 -0.0979961,-0.0547559 -0.0374843,-0.0129843 -0.080315,-0.0195984 -0.128035,-0.0198071 -0.0513307,0.000208661 -0.0982047,0.00958661 -0.140811,0.028126 -0.0426024,0.0185236 -0.0792441,0.0440984 -0.110358,0.0769016 -0.0310984,0.0330197 -0.0549528,0.0713661 -0.0719961,0.115039 -0.0170433,0.0436772 -0.0255748,0.0909606 -0.0257874,0.141669l0 0.00255118c0.000212598,0.0538976 0.00937795,0.102689 0.0272835,0.146787 0.0180984,0.0438898 0.0436575,0.0815866 0.076689,0.113335 0.0328071,0.031748 0.072,0.0560236 0.117169,0.0730709 0.0451535,0.0172559 0.0950039,0.0257835 0.149551,0.0259961zm-0.140614 -0.41926c0.00427165,-0.0253465 0.0119409,-0.0472992 0.0225866,-0.0660472 0.0108701,-0.0187362 0.0245,-0.0332283 0.0409134,-0.0434488 0.0163937,-0.0104488 0.0353543,-0.0155512 0.0566575,-0.0157638 0.0221614,0.000212598 0.0417598,0.00531496 0.0588031,0.0153386 0.0168307,0.0102205 0.0304646,0.0247008 0.0408976,0.0434488 0.0106575,0.0185394 0.0174646,0.040689 0.0204567,0.0664724l-0.240315 0z"/>
   <path id="_40781272" class="fil1" d="M7.73222 1.52649c0.0643465,0 0.116504,0.0521575 0.116504,0.116504 0,0.0643425 -0.0521575,0.1165 -0.116504,0.1165 -0.0643425,0 -0.1165,-0.0521575 -0.1165,-0.1165 0,-0.0643465 0.0521575,-0.116504 0.1165,-0.116504z"/>
   <path id="_40780720" class="fil2" d="M8.17113 1.74078c0.0409803,0 0.0780906,0.0166181 0.104945,0.0434764 0.0268583,0.0268583 0.0434764,0.0639685 0.0434764,0.104945 0,0.00668898 -0.000444882,0.0132717 -0.00130315,0.0197283 -0.0324606,-0.00375984 -0.0594134,0.0142992 -0.0910906,0.0152598 -0.000712598,1.5748e-005 -0.0014252,1.5748e-005 -0.0021378,-7.87402e-006 0.00654331,-0.010063 0.0103465,-0.0220748 0.0103465,-0.0349803 0,-0.0177441 -0.00719291,-0.0338071 -0.018811,-0.0454291 -0.0116181,-0.0116181 -0.027685,-0.018811 -0.0454252,-0.018811 -0.00476772,0 -0.00941339,0.000523622 -0.0138819,0.00150787 -0.00494094,-0.00588189 -0.0105157,-0.0112598 -0.0149567,-0.0175315 -0.0106142,-0.0149606 -0.0210827,-0.0300551 -0.031189,-0.0453661 -0.00170079,-0.0025748 -0.00344882,-0.00514567 -0.0051811,-0.00772835 0.019685,-0.00964567 0.041815,-0.015063 0.0652087,-0.015063zm0.856 -1.08652c-0.000814961,-0.000370079 -0.0013189,-0.00053937 -0.00163386,-0.000586614 -0.00565748,-0.00240157 -0.0114882,-0.00408661 -0.0175472,-0.0048622 0.000102362,0.000602362 0.000425197,0.000897638 0.000976378,0.000885827 -0.0110079,0.00177559 -0.018126,0.0110197 -0.0277953,0.0156181 -0.011,0.00524803 -0.0232283,0.00157087 -0.034811,0.00304331 -0.00551575,0.000704724 -0.0109882,0.00239764 -0.0164449,0.00435433 0.0304173,0.0190157 0.060063,0.0391496 0.0888976,0.0603228 0.00153937,-0.00384646 0.00275591,-0.00782283 0.00351969,-0.0119961 0.00307087,-0.0167441 -0.00405512,-0.0452087 0.0152087,-0.0542913 -0.00161811,-0.00594882 -0.00629528,-0.00765748 -0.0103701,-0.0124882zm-0.123295 0.027252c-0.0112126,0.00354331 -0.0211378,0.00909449 -0.0322953,0.0130354 -0.00887795,0.00312598 -0.023748,0.00323228 -0.0292244,-0.0062126 -0.0015748,-0.00273228 0.000783465,-0.00597244 0.000484252,-0.0089252 -0.000535433,-0.00527165 -0.00297638,-0.0111339 -0.00555906,-0.0157244 -0.00676378,-0.0119961 -0.0205118,-0.0193819 -0.0303307,-0.0286575 -0.00538976,-0.00509843 -0.0106417,-0.0103583 -0.0161299,-0.0153386 -0.187087,-0.0914882 -0.397362,-0.142866 -0.61965,-0.142866 -0.314858,0 -0.605638,0.103051 -0.8405,0.277236 0.00421654,0.0101339 0.00786614,0.0205354 0.0129094,0.0306811 0.00511417,0.0102677 0.0120039,0.0194528 0.0211535,0.0264252 0.00503937,0.00383465 0.0105079,0.0071063 0.0155551,0.0108976 0.220945,-0.164012 0.494575,-0.261055 0.790882,-0.261055 0.301551,0 0.579622,0.100508 0.802563,0.269827 0.00676772,-0.0101575 0.00943701,-0.0205157 0.0119213,-0.0334331 0.00329528,-0.017126 0.0139803,-0.0309961 0.0231142,-0.0454843 -0.0338465,-0.0249685 -0.0688307,-0.0484843 -0.104894,-0.0704055zm-0.164831 -0.108929c-0.0043937,-0.00715354 -0.00861811,-0.0144094 -0.0139961,-0.0208976 -0.00909449,-0.0109961 -0.0226811,-0.016622 -0.0316929,-0.0274724 -0.00708661,-0.00855906 -0.00800394,-0.0196969 -0.0138228,-0.0288071 -0.00579134,-0.00907874 -0.0163543,-0.0122638 -0.0235,-0.0197598 -0.00432283,-0.00452362 -0.00325591,-0.0129685 -0.00374016,-0.0186496 -0.00023622,-0.00277559 -0.000629921,-0.00543701 -0.00116142,-0.00801181 -0.15085,-0.050252 -0.312224,-0.0774882 -0.479961,-0.0774882 -0.339488,0 -0.652941,0.11148 -0.90576,0.299815 0.00172441,0.00245276 0.00359055,0.00483858 0.00561024,0.00714173 0.014374,0.0164016 0.0310984,0.0305157 0.044437,0.0478701 0.00211417,0.00274803 0.00400787,0.00556299 0.00574016,0.00843307 0.237827,-0.175394 0.531787,-0.279079 0.849972,-0.279079 0.20174,0 0.39374,0.0416969 0.567874,0.116906zm-0.0989331 -0.149449c-0.00980315,-0.0151339 -0.0235591,-0.0279055 -0.0342165,-0.0435709 -0.00612992,-0.0090315 -0.00350787,-0.0185039 -0.00520866,-0.028622 -0.00192126,-0.0113898 -0.00960236,-0.0189724 -0.0183661,-0.0258189 -0.00409449,-0.00320472 -0.00808268,-0.00624016 -0.0118465,-0.00944488 -0.127748,-0.0323189 -0.26152,-0.0495118 -0.399303,-0.0495118 -0.337689,0 -0.651283,0.10315 -0.911024,0.279638 -0.00383071,0.00802756 -0.00810236,0.0157874 -0.0128504,0.0228071 -0.00549213,0.00809055 -0.0101535,0.0155906 -0.00735827,0.025689 0.00287008,0.0103583 0.00660236,0.0194291 0.00816929,0.0301772 0.00140945,0.00969685 0.00369291,0.0191102 0.00720866,0.0279882 0.255906,-0.189815 0.57276,-0.302118 0.915854,-0.302118 0.163531,0 0.321091,0.0255315 0.468941,0.0727874zm-0.0904961 -0.134323c-0.00527953,-0.00976772 -0.00978346,-0.0199646 -0.014315,-0.0300906 0.0110669,-0.00807087 0.0267087,-0.00830315 0.0277913,-0.0253307 0.000606299,-0.00933465 -0.00173622,-0.0194646 -0.00501181,-0.029063 -0.113161,-0.025878 -0.230559,-0.0406339 -0.350972,-0.0430906 -0.000307087,0.000850394 -0.000677165,0.00167717 -0.00112598,0.00249606 -0.00803937,0.0146693 -0.0252638,0.00896457 -0.0375984,0.00487402 -0.00296063,-0.00334646 -0.00774803,-0.00597244 -0.0130906,-0.00766929 -0.00856693,7.48031e-005 -0.0171142,0.00019685 -0.0256535,0.000401575l-0.000708661 0.000429134c-0.000811024,6.29921e-005 -0.00198031,-5.90551e-005 -0.0033189,-0.00034252 -0.311717,0.00806693 -0.602894,0.0986772 -0.852496,0.250764 0.0185315,0.00578346 0.00564567,0.0303504 0.00458268,0.0437441 -0.000814961,0.0102165 0.000901575,0.0203543 0.000807087,0.0305551 -8.66142e-005,0.00840945 -0.00202756,0.0167362 -0.0046063,0.0247441 0.258016,-0.168346 0.566209,-0.266213 0.897272,-0.266213 0.130244,0 0.256941,0.0151693 0.378445,0.0437913zm-0.00198819 -0.108504c-0.0109331,-0.0173465 -0.028122,-0.0202087 -0.0489449,-0.024752 -0.0182087,-0.00397638 -0.0298268,-0.0111142 -0.0479488,-0.00206693 -0.00472441,0.00235433 -0.00914961,0.00451181 -0.0135236,0.00630315 0.0372047,0.00567717 0.0740197,0.0125354 0.110417,0.0205157zm-0.206917 -0.0324764c-0.00274016,-0.000937008 -0.00542913,-0.00207087 -0.00806693,-0.00359055 -0.00618898,-0.00355512 -0.0122677,-0.00809055 -0.0195079,-0.00917717 -0.00796457,-0.00698031 -0.0267953,-0.00249213 -0.038626,-0.00367323 -0.000165354,-0.00106299 -0.00187008,-0.00696063 -0.00193307,-0.00794882 -0.000586614,0.000322835 -0.00123622,0.000409449 -0.00195276,0.000240157 6.29921e-005,-0.00395669 -0.00156299,-0.00742913 -0.00212598,-0.0103858 -0.0187244,-0.00757087 -0.0479528,-0.00216929 -0.0578465,0.0170079 -0.00162205,0.00314173 -0.00220866,0.00644882 -0.00237795,0.00980315 0.0445748,0.000933071 0.0887402,0.00352362 0.132437,0.00772441zm-0.227839 -0.00715354c-0.000720472,-0.000748031 -0.00556693,-0.00296063 -0.00618898,-0.00331102 -0.00183465,-0.00100394 -0.00365354,-0.00185433 -0.00556299,-0.00270472 -0.00410236,-0.0018189 -0.00805906,-0.00393701 -0.0118504,-0.00634646 -0.00434252,-0.00088189 -0.00816142,-0.00280315 -0.0122795,-0.00433071 -0.00446063,-0.00165354 -0.00909449,-0.00269291 -0.0137008,-0.00379528 -0.00524409,-0.00127953 -0.0104921,-0.00252362 -0.0157244,-0.0037874 -0.00843307,-0.00248819 -0.0168465,-0.00545669 -0.025374,-0.00750787 -0.00652756,-0.00157087 -0.0127874,-0.00135039 -0.019063,-0.00411024 -0.000885827,-0.000897638 -0.00254724,-0.00240157 -0.00500787,-0.0041378 -0.00458661,-0.00324803 -0.00512598,-0.00826772 -0.00434252,-0.0134173 0,-0.00323228 0.0010748,-0.00674803 0.00245669,-0.00962992 0.00111417,-0.00229921 0.00266929,-0.00405906 0.00255118,-0.00679921 -0.000114173,-0.00253937 -0.0012874,-0.00484646 -0.00277559,-0.00700394 -0.187524,0.0177756 -0.366807,0.0637835 -0.533579,0.133728 -0.00873622,0.0075315 -0.0177835,0.0140118 -0.0289528,0.0177559 -0.0131811,0.00440945 -0.0243976,0.00890945 -0.0326496,0.0206693 -0.00737402,0.0105157 -0.0150118,0.0192559 -0.0255433,0.0267795 -0.00964961,0.00689764 -0.0198622,0.0131024 -0.0275039,0.0223701 -0.00778346,0.00941339 -0.0127126,0.0210984 -0.0199134,0.0310276 -0.00769291,0.0106063 -0.0160472,0.0207165 -0.0240945,0.031063 -0.00861811,0.0111063 -0.0182323,0.0234094 -0.0247402,0.0367598 0.245579,-0.145854 0.529902,-0.233319 0.833839,-0.243272zm-0.127772 -0.0970827l-1.1811e-005 -2.75591e-005c0.00343701,-0.00418504 0.00465748,-0.0090315 0.00438189,-0.0152283 0,0.000519685 0.000555118,0.00092126 0.00053937,0.000838583 -0.000874016,-0.0027874 -0.000933071,-0.00265748 -0.00349213,-0.0043622 -0.000968504,-0.00590945 -0.0133661,-0.0167244 -0.023,-0.0154016 -0.00338976,-0.00324803 -0.00129921,-0.00218504 -0.00676772,-0.00275197 -0.00389764,-0.00355118 -0.00516142,-0.00319291 -0.0106142,-0.00474016 -0.0032874,-0.00198819 -0.0074685,-0.00274409 -0.0132559,-0.000704724 -0.00509449,-0.00229921 -0.0120551,0.00155118 -0.0115591,0.00198425 -0.00565748,0.00752756 -0.0151969,0.0136181 -0.0247835,0.00973622 -0.00328346,-0.00019685 -0.00537008,-7.08661e-005 -0.00859055,0.000141732 -0.0036063,-0.00550394 -0.0105669,-0.00725984 -0.0174961,-0.0055 -0.0100945,-0.00796063 -0.0152205,0.00446457 -0.0246732,0.00585827 -0.0132913,0.00195669 -0.0256811,-0.00724409 -0.039185,-0.00397638 -0.00042126,-0.000846457 -0.00042126,-0.00171654 -1.1811e-005,-0.00259055 -0.0175118,-0.000988189 -0.0531811,0.0145079 -0.0662717,0.0255787 -0.00834646,0.000484252 -0.0215276,0.00261417 -0.0312953,0.00734252 -9.84252e-005,-0.00088189 -0.00046063,-0.0016378 -0.00106693,-0.00229134 -0.00548819,0.0021063 -0.0102795,0.00188189 -0.0154409,0.00497638 -0.00560236,-0.0012874 -0.0118307,0.000133858 -0.0168701,0.0036378 -0.00254331,9.05512e-005 -0.00819685,0.000188976 -0.0113976,-0.00116142 -0.00387402,0.000283465 -0.0142913,-0.000708661 -0.0162835,-0.00112992 0.000708661,-0.00107874 -0.00390157,-0.00188583 -0.00565354,-0.00188583 -0.000244094,-0.00430315 0.000133858,-0.00313386 -0.00347244,-0.00805512 0.000220472,0.000267717 0.000452756,0.000547244 0.000673228,0.000818898 0.000275591,-0.00415748 -0.00102362,-0.00738583 -0.00327165,-0.00977165 -0.0114528,0.00327953 -0.0228622,0.00667717 -0.0342244,0.0101575 -0.00138976,0.00334646 -0.00262992,0.0067126 -0.00416929,0.00945669 -0.0119449,0.021185 -0.0317126,0.0269291 -0.052378,0.0365906 -0.0221181,0.0103346 -0.0411614,0.0272087 -0.0475315,0.0514882 -0.00266929,0.0101575 -0.00192126,0.0204803 -0.00611024,0.0300906 0.155283,-0.0611457 0.320803,-0.101941 0.493283,-0.119118zm-0.590209 0.79398c0.00666142,0.00957087 0.0119921,0.0200512 0.0206929,0.0281654 0.00912992,0.0085 0.020063,0.0150118 0.0326299,0.0164488 0.0127244,0.00144488 0.0254606,-0.00188583 0.0374764,-0.00580315 0.195516,-0.132583 0.431449,-0.210047 0.68548,-0.210047 0.279894,0 0.537831,0.0940354 0.743929,0.252232 0.00355118,-0.00317717 0.00724803,-0.00627165 0.0111417,-0.00923228l-0.00366929 -3.93701e-006c0.020126,-0.00172047 0.0246142,-0.0298346 0.0296063,-0.0449567 0.00211811,-0.00639764 0.00501575,-0.0117402 0.0085748,-0.0168307 -0.219362,-0.166535 -0.492929,-0.265394 -0.789583,-0.265394 -0.290689,0 -0.559197,0.0949173 -0.77628,0.255421zm0.145236 0.0287638c0.0125315,-0.00065748 0.0251457,-0.000220472 0.0375315,0.00175591 0.0136811,0.0021811 0.0271417,0.00630315 0.0410591,0.00692913 0.0172717,0.000755906 0.0302126,-0.00730709 0.0461693,-0.0120472 0.0137835,-0.00408661 0.0281811,-0.00495669 0.0423543,-0.00690945 0.0166299,-0.00230709 0.0277283,-0.00774409 0.0421181,-0.0157402 0.0102441,-0.00570866 0.0218504,-0.00709055 0.0310394,0.00123228l0.000275591 0.000251969c0.121559,-0.0453386 0.25313,-0.0701457 0.390496,-0.0701457 0.251622,0 0.483827,0.0831732 0.670614,0.223508 0.00646457,-0.0064685 0.0136181,-0.0122244 0.0199606,-0.0188937 0.013437,-0.014126 0.0251417,-0.0289055 0.0381142,-0.0427165 -0.202146,-0.154374 -0.454705,-0.246079 -0.728689,-0.246079 -0.231465,0 -0.447642,0.0654606 -0.631043,0.178854zm0.257114 -0.00808661c0.00305512,0.00322835 0.00607087,0.00648425 0.00907087,0.00971654 0.00724016,0.00781102 0.015437,0.0179567 0.025815,0.0216339 0.0154055,0.00545276 0.0321772,-0.00015748 0.0477874,0.00433465 0.0103386,0.00296063 0.0198307,0.0103425 0.0276772,0.0177244 0.0840433,-0.0226024 0.172402,-0.0346654 0.263579,-0.0346654 0.227035,0 0.43661,0.074748 0.605461,0.200965 0.0110512,-0.0117244 0.0226575,-0.0229449 0.0328622,-0.0355079 0.00772441,-0.00949606 0.0127992,-0.020437 0.0191811,-0.0306693 -0.183189,-0.137492 -0.410831,-0.218969 -0.657504,-0.218969 -0.131315,0 -0.257236,0.0230984 -0.373929,0.065437zm0.123406 0.0718465c0.00120079,0.00390157 0.00162598,0.00819685 0.00124016,0.013189 -0.000956693,0.0123583 -0.00458268,0.0252402 -0.00205118,0.0376102 -0.00506299,0.0130512 -0.0131457,0.0266732 -0.0142953,0.0409724 0.0840118,-0.0257008 0.173205,-0.0395433 0.26563,-0.0395433 0.217902,0 0.417846,0.0768622 0.574213,0.204925 -0.00356693,-0.00702756 -0.00867323,-0.0133661 -0.0116024,-0.0207953 -0.00827559,-0.021 0.00999213,-0.0467087 0.0214646,-0.0629961 0.00232677,-0.00329528 0.00477165,-0.00648425 0.00729921,-0.00959449 -0.165079,-0.122949 -0.369728,-0.195724 -0.591374,-0.195724 -0.0865472,0 -0.1705,0.0111102 -0.250524,0.0319567zm-0.0111417 0.112673c0.00649213,0.0139055 0.0194291,0.0257362 0.0293504,0.0363701 0.0102441,0.0109843 0.0199134,0.0225394 0.0290157,0.0345354 0.0649252,-0.0169724 0.133055,-0.0260197 0.203299,-0.0260197 0.221346,0 0.42174,0.0897165 0.566783,0.234764 0.0132874,0.0132835 0.0261024,0.0270354 0.0384331,0.0412205 0.000232283,-0.0174449 -0.00180315,-0.0353504 0.000102362,-0.0520591 0.00169685,-0.0149724 0.00942913,-0.0321969 -0.000716535,-0.0458425 -0.00637795,-0.00858268 -0.0170276,-0.0124449 -0.023315,-0.0209882 -0.00632283,-0.00859449 -0.00545669,-0.0179803 -0.00424803,-0.0275157 -0.155004,-0.133228 -0.356618,-0.213764 -0.577039,-0.213764 -0.0910906,0 -0.178965,0.0137559 -0.261665,0.0392992zm0.0716732 0.0893386c0.00984646,0.0143268 0.0189331,0.0291575 0.0272756,0.0442992 0.00480709,0.00874016 0.0103307,0.0172165 0.0136732,0.0266772 0.000653543,0.00184252 0.0011063,0.00370866 0.00140551,0.00559055 0.0475827,-0.0102756 0.0969764,-0.015689 0.147638,-0.015689 0.192256,0 0.366319,0.0779291 0.492303,0.203913 0.0167362,0.0167362 0.0326142,0.0343307 0.0475866,0.0526929 0.0208425,-0.0115787 0.044563,-0.0222165 0.0563976,-0.0442283 0.00230315,-0.0042874 0.0040315,-0.00871654 0.00533071,-0.013248 -0.0157323,-0.0190236 -0.0323504,-0.0372913 -0.0497953,-0.0547362 -0.141224,-0.141224 -0.336327,-0.228579 -0.551823,-0.228579 -0.0655315,0 -0.129173,0.00809055 -0.189992,0.0233071zm0.0421417 0.0982756c-3.54331e-005,0.000728346 -6.29921e-005,0.00145669 -7.87402e-005,0.0021811 -0.000413386,0.0163504 0.00857874,0.0290315 0.0155709,0.0430276 0.00673622,0.0135118 0.00595276,0.0255197 0.00225984,0.0371024 0.0418661,-0.00940551 0.0853976,-0.014378 0.130098,-0.014378 0.163169,0 0.310902,0.0661417 0.417823,0.173063 0.0132402,0.0132362 0.0258465,0.0270984 0.0377835,0.0415394 0.00267717,-0.00227165 0.00538583,-0.00450787 0.00805906,-0.00675591 0.0187362,-0.0157638 0.0375669,-0.0318425 0.058,-0.0454449 -0.0139803,-0.0169961 -0.0287717,-0.0333071 -0.0443228,-0.0488583 -0.122161,-0.122165 -0.290933,-0.197732 -0.477343,-0.197732 -0.0507913,0 -0.100268,0.00562205 -0.14785,0.0162559zm0.00719291 0.106583c-0.00500394,0.0104488 -0.00973622,0.0211614 -0.0107598,0.0329488l-0.00183465 0c-0.00774803,0.0173425 -0.0146535,0.0352205 -0.0187323,0.0538071 -0.00088189,0.00402362 -0.0016063,0.00805906 -0.00216142,0.0120906 0.054063,-0.0207717 0.112772,-0.0321654 0.174146,-0.0321654 0.134087,0 0.25548,0.0543465 0.343343,0.142209 0.0307047,0.0307008 0.0573071,0.0655 0.0789331,0.1035 0.00369685,-0.00627559 0.00603543,-0.0134449 0.00738583,-0.0204449 0.00492126,-0.0253858 -0.00325591,-0.0503504 -0.000614173,-0.0756102 0.00105906,-0.0102008 0.00541732,-0.0183976 0.0113465,-0.0255748 -0.0118346,-0.0144016 -0.0243583,-0.0282165 -0.0375315,-0.0413898 -0.103102,-0.103102 -0.245539,-0.166878 -0.402862,-0.166878 -0.0485433,0 -0.0956654,0.00608268 -0.140657,0.0175079zm-0.0347756 0.12211c0.000488189,0.0175472 0.00435827,0.0348543 0.0119961,0.0512717 0.00468898,0.0100748 0.010748,0.0190906 0.0173189,0.0277205 0.0449843,-0.0187402 0.0943425,-0.0290945 0.146118,-0.0290945 0.105,0 0.200063,0.0425591 0.268866,0.111362 0.0381181,0.0381181 0.0681732,0.0843031 0.0874094,0.135764 0.00561811,-0.0129252 0.00287402,-0.0263976 0.00500394,-0.040248 0.00187008,-0.0121969 0.00770866,-0.0258937 0.0159921,-0.0350709 0.00778346,-0.0086378 0.0194213,-0.0108898 0.0292953,-0.0161811 -0.0211535,-0.0382165 -0.0475315,-0.0731339 -0.0781811,-0.103783 -0.0840433,-0.0840394 -0.200146,-0.136028 -0.328386,-0.136028 -0.0620748,0 -0.121303,0.012185 -0.175433,0.0342874zm0.0431181 0.0962165c0.00785433,0.00961024 0.015626,0.0193071 0.0220354,0.0300787 0.00840551,0.0140984 0.0104685,0.029311 0.0118701,0.0453858l0.000149606 0.00162598c0.0305197,-0.0116811 0.0636378,-0.0180787 0.0982598,-0.0180787 0.0759134,0 0.144646,0.0307717 0.194386,0.0805118 0.0427441,0.0427441 0.0714843,0.0995157 0.0787165,0.162815 0.00872047,-0.0071063 0.0159213,-0.0158701 0.0230315,-0.0246654 0.0105512,-0.013063 0.0204291,-0.0266535 0.0309921,-0.0397165 0.00440945,-0.00544882 0.00938976,-0.0106339 0.0141535,-0.0159921 -0.017748,-0.0541339 -0.0480118,-0.102594 -0.087374,-0.141961 -0.0649803,-0.0649803 -0.154756,-0.105177 -0.253906,-0.105177 -0.0467283,0 -0.0913661,0.00893307 -0.132315,0.0251732zm0.0377362 0.098374c0.00167323,0.00701969 0.00369685,0.0139646 0.00580315,0.0213268 0.00426772,0.014874 0.00301575,0.0305315 0.00624409,0.0455748 0.00129921,0.00603937 0.00353543,0.0116969 0.00629528,0.0171299 0.0229173,-0.0115551 0.048815,-0.018063 0.0762362,-0.018063 0.0468268,0 0.0892244,0.0189803 0.119906,0.0496614 0.0306811,0.0306811 0.0496614,0.0730787 0.0496614,0.119906 0,0.0066063 -0.000377953,0.0131181 -0.00111024,0.0195276 0.00744094,-0.00137008 0.0144921,-0.00430315 0.0219213,-0.0091063 0.0114921,-0.00744488 0.0227087,-0.0137441 0.0354921,-0.0187598 0.00908268,-0.00354724 0.0183228,-0.00687008 0.0271535,-0.0110197 -0.00470472,-0.0623504 -0.0319488,-0.118417 -0.0735984,-0.160067 -0.0459173,-0.0459213 -0.109362,-0.0743268 -0.179425,-0.0743268 -0.0334291,0 -0.0653504,0.0064685 -0.0945787,0.0182165z"/>
  </g>
 </g>
</svg>
